<mxfile host="65bd71144e" pages="2">
    <diagram id="1Vnotx48J0o54xVuZsNp" name="Data Model">
        <mxGraphModel dx="5768" dy="2312" grid="0" gridSize="10" guides="1" tooltips="1" connect="1" arrows="1" fold="1" page="1" pageScale="1" pageWidth="1654" pageHeight="1169" background="#FFFFFF" math="0" shadow="0">
            <root>
                <mxCell id="0"/>
                <mxCell id="1" parent="0"/>
                <mxCell id="5" value="" style="rounded=0;whiteSpace=wrap;html=1;" parent="1" vertex="1">
                    <mxGeometry x="-457" y="89" width="361" height="418" as="geometry"/>
                </mxCell>
                <mxCell id="Iv32N8p0v7MfE5rj19wR-20" value="ACCOUNTING" style="rounded=0;whiteSpace=wrap;html=1;horizontal=1;verticalAlign=top;fontStyle=1;fillColor=none;dashed=1;dashPattern=8 8;strokeColor=#000000;fontColor=#000000;align=left;" parent="1" vertex="1">
                    <mxGeometry x="-1500" y="88" width="499" height="692" as="geometry"/>
                </mxCell>
                <mxCell id="Iv32N8p0v7MfE5rj19wR-7" value="AUTH" style="rounded=0;whiteSpace=wrap;html=1;horizontal=1;verticalAlign=top;fontStyle=1;fillColor=none;dashed=1;dashPattern=8 8;strokeColor=#000000;fontColor=#000000;align=left;" parent="1" vertex="1">
                    <mxGeometry x="-2094" y="87" width="563" height="237" as="geometry"/>
                </mxCell>
                <mxCell id="7g1gW_ohmSIdDcVaLARk-2" value="User" style="html=1;overflow=block;blockSpacing=1;swimlane;childLayout=stackLayout;horizontal=1;horizontalStack=0;resizeParent=1;resizeParentMax=0;resizeLast=0;collapsible=0;fontStyle=0;marginBottom=0;swimlaneFillColor=#fcfcca;startSize=NaN;whiteSpace=wrap;fontSize=16.7;spacing=0;strokeColor=#unset;fillOpacity=100;rounded=1;absoluteArcSize=1;arcSize=9;strokeWidth=NaN;fillColor=#fcfcca;" parent="1" vertex="1">
                    <mxGeometry x="-138" y="-231" width="150" as="geometry"/>
                </mxCell>
                <mxCell id="7g1gW_ohmSIdDcVaLARk-3" value="ID" style="part=1;resizeHeight=0;strokeColor=none;align=left;verticalAlign=top;spacingLeft=4;spacingRight=4;overflow=hidden;rotatable=0;points=[[0,0.5],[1,0.5]];portConstraint=eastwest;html=1;swimlaneFillColor=#fcfcca;whiteSpace=wrap;fontSize=16.7;fillColor=none;fillOpacity=100;" parent="7g1gW_ohmSIdDcVaLARk-2" vertex="1">
                    <mxGeometry width="150" as="geometry"/>
                </mxCell>
                <mxCell id="7g1gW_ohmSIdDcVaLARk-4" value="ParrotBeak" style="part=1;resizeHeight=0;strokeColor=none;align=left;verticalAlign=top;spacingLeft=4;spacingRight=4;overflow=hidden;rotatable=0;points=[[0,0.5],[1,0.5]];portConstraint=eastwest;html=1;swimlaneFillColor=#fcfcca;whiteSpace=wrap;fontSize=16.7;fillColor=none;fillOpacity=100;" parent="7g1gW_ohmSIdDcVaLARk-2" vertex="1">
                    <mxGeometry width="150" as="geometry"/>
                </mxCell>
                <mxCell id="7g1gW_ohmSIdDcVaLARk-5" value="Name" style="part=1;resizeHeight=0;strokeColor=none;align=left;verticalAlign=top;spacingLeft=4;spacingRight=4;overflow=hidden;rotatable=0;points=[[0,0.5],[1,0.5]];portConstraint=eastwest;html=1;swimlaneFillColor=#fcfcca;whiteSpace=wrap;fontSize=16.7;fillColor=none;fillOpacity=100;" parent="7g1gW_ohmSIdDcVaLARk-2" vertex="1">
                    <mxGeometry width="150" as="geometry"/>
                </mxCell>
                <mxCell id="7g1gW_ohmSIdDcVaLARk-6" value="Role" style="part=1;resizeHeight=0;strokeColor=none;align=left;verticalAlign=top;spacingLeft=4;spacingRight=4;overflow=hidden;rotatable=0;points=[[0,0.5],[1,0.5]];portConstraint=eastwest;html=1;swimlaneFillColor=#fcfcca;whiteSpace=wrap;fontSize=16.7;fillColor=none;fillOpacity=100;" parent="7g1gW_ohmSIdDcVaLARk-2" vertex="1">
                    <mxGeometry width="150" as="geometry"/>
                </mxCell>
                <mxCell id="7g1gW_ohmSIdDcVaLARk-7" value="EMail" style="part=1;resizeHeight=0;strokeColor=none;align=left;verticalAlign=top;spacingLeft=4;spacingRight=4;overflow=hidden;rotatable=0;points=[[0,0.5],[1,0.5]];portConstraint=eastwest;html=1;swimlaneFillColor=#fcfcca;whiteSpace=wrap;fontSize=16.7;fillColor=none;fillOpacity=100;" parent="7g1gW_ohmSIdDcVaLARk-2" vertex="1">
                    <mxGeometry width="150" as="geometry"/>
                </mxCell>
                <mxCell id="Iv32N8p0v7MfE5rj19wR-5" style="edgeStyle=orthogonalEdgeStyle;rounded=0;orthogonalLoop=1;jettySize=auto;html=1;" parent="1" source="Iv32N8p0v7MfE5rj19wR-2" target="Iv32N8p0v7MfE5rj19wR-4" edge="1">
                    <mxGeometry relative="1" as="geometry"/>
                </mxCell>
                <mxCell id="Iv32N8p0v7MfE5rj19wR-6" style="edgeStyle=orthogonalEdgeStyle;rounded=0;orthogonalLoop=1;jettySize=auto;html=1;exitX=1;exitY=0.5;exitDx=0;exitDy=0;" parent="1" source="Iv32N8p0v7MfE5rj19wR-2" target="Iv32N8p0v7MfE5rj19wR-3" edge="1">
                    <mxGeometry relative="1" as="geometry"/>
                </mxCell>
                <mxCell id="Iv32N8p0v7MfE5rj19wR-2" value="User" style="rounded=1;arcSize=10;whiteSpace=wrap;html=1;align=center;fillColor=#fff2cc;strokeColor=#d6b656;fillStyle=solid;" parent="1" vertex="1">
                    <mxGeometry x="-1882" y="243" width="117" height="40" as="geometry"/>
                </mxCell>
                <mxCell id="Iv32N8p0v7MfE5rj19wR-3" value="Role" style="whiteSpace=wrap;html=1;align=center;fillColor=#f5f5f5;fontColor=#333333;strokeColor=#666666;fillStyle=solid;" parent="1" vertex="1">
                    <mxGeometry x="-1666" y="243" width="100" height="40" as="geometry"/>
                </mxCell>
                <mxCell id="Iv32N8p0v7MfE5rj19wR-4" value="ParrotBeak" style="whiteSpace=wrap;html=1;align=center;fillColor=#f5f5f5;fontColor=#333333;strokeColor=#666666;fillStyle=solid;" parent="1" vertex="1">
                    <mxGeometry x="-2084" y="243" width="100" height="40" as="geometry"/>
                </mxCell>
                <mxCell id="Iv32N8p0v7MfE5rj19wR-8" value="TASK MANAGEMENT" style="rounded=0;whiteSpace=wrap;html=1;horizontal=1;verticalAlign=top;fontStyle=1;fillColor=none;dashed=1;dashPattern=8 8;strokeColor=#000000;fontColor=#000000;align=left;" parent="1" vertex="1">
                    <mxGeometry x="-2094" y="350" width="563" height="370" as="geometry"/>
                </mxCell>
                <mxCell id="Iv32N8p0v7MfE5rj19wR-14" style="edgeStyle=orthogonalEdgeStyle;rounded=0;orthogonalLoop=1;jettySize=auto;html=1;dashed=1;dashPattern=1 1;strokeWidth=2;" parent="1" source="Iv32N8p0v7MfE5rj19wR-9" target="Iv32N8p0v7MfE5rj19wR-2" edge="1">
                    <mxGeometry relative="1" as="geometry"/>
                </mxCell>
                <mxCell id="Iv32N8p0v7MfE5rj19wR-9" value="User" style="rounded=1;arcSize=10;whiteSpace=wrap;html=1;align=center;fillStyle=solid;fillColor=#d5e8d4;strokeColor=#82b366;" parent="1" vertex="1">
                    <mxGeometry x="-1881" y="402" width="115" height="40" as="geometry"/>
                </mxCell>
                <mxCell id="Iv32N8p0v7MfE5rj19wR-32" style="edgeStyle=orthogonalEdgeStyle;rounded=0;orthogonalLoop=1;jettySize=auto;html=1;entryX=0.5;entryY=1;entryDx=0;entryDy=0;" parent="1" source="Iv32N8p0v7MfE5rj19wR-12" target="Iv32N8p0v7MfE5rj19wR-17" edge="1">
                    <mxGeometry relative="1" as="geometry"/>
                </mxCell>
                <mxCell id="mHGjMwjQVeR-y7_QzPVI-2" style="edgeStyle=none;html=1;" parent="1" source="Iv32N8p0v7MfE5rj19wR-12" target="mHGjMwjQVeR-y7_QzPVI-1" edge="1">
                    <mxGeometry relative="1" as="geometry"/>
                </mxCell>
                <mxCell id="Iv32N8p0v7MfE5rj19wR-12" value="Task" style="rounded=1;arcSize=10;whiteSpace=wrap;html=1;align=center;fillColor=#fff2cc;strokeColor=#d6b656;fillStyle=solid;" parent="1" vertex="1">
                    <mxGeometry x="-1881" y="640" width="115" height="40" as="geometry"/>
                </mxCell>
                <mxCell id="Iv32N8p0v7MfE5rj19wR-31" style="edgeStyle=orthogonalEdgeStyle;rounded=0;orthogonalLoop=1;jettySize=auto;html=1;" parent="1" source="Iv32N8p0v7MfE5rj19wR-16" target="Iv32N8p0v7MfE5rj19wR-29" edge="1">
                    <mxGeometry relative="1" as="geometry"/>
                </mxCell>
                <mxCell id="17" style="edgeStyle=none;html=1;strokeWidth=1;" edge="1" parent="1" source="Iv32N8p0v7MfE5rj19wR-16" target="Iv32N8p0v7MfE5rj19wR-21">
                    <mxGeometry relative="1" as="geometry"/>
                </mxCell>
                <mxCell id="Iv32N8p0v7MfE5rj19wR-16" value="Transaction" style="rounded=0;arcSize=10;whiteSpace=wrap;html=1;align=center;fillColor=#fff2cc;fillStyle=solid;strokeColor=#d6b656;" parent="1" vertex="1">
                    <mxGeometry x="-1406" y="390" width="115" height="40" as="geometry"/>
                </mxCell>
                <mxCell id="Iv32N8p0v7MfE5rj19wR-18" style="edgeStyle=orthogonalEdgeStyle;rounded=0;orthogonalLoop=1;jettySize=auto;html=1;" parent="1" source="Iv32N8p0v7MfE5rj19wR-17" target="Iv32N8p0v7MfE5rj19wR-9" edge="1">
                    <mxGeometry relative="1" as="geometry"/>
                </mxCell>
                <mxCell id="Iv32N8p0v7MfE5rj19wR-17" value="Task Assignment" style="rounded=0;arcSize=10;whiteSpace=wrap;html=1;align=center;fillColor=#f5f5f5;fontColor=#333333;strokeColor=#666666;fillStyle=solid;" parent="1" vertex="1">
                    <mxGeometry x="-1881" y="510" width="115" height="40" as="geometry"/>
                </mxCell>
                <mxCell id="Iv32N8p0v7MfE5rj19wR-22" style="edgeStyle=orthogonalEdgeStyle;rounded=0;orthogonalLoop=1;jettySize=auto;html=1;entryX=0.75;entryY=0;entryDx=0;entryDy=0;dashed=1;dashPattern=1 1;strokeWidth=2;curved=1;exitX=0;exitY=0.5;exitDx=0;exitDy=0;" parent="1" source="Iv32N8p0v7MfE5rj19wR-21" target="Iv32N8p0v7MfE5rj19wR-2" edge="1">
                    <mxGeometry relative="1" as="geometry"/>
                </mxCell>
                <mxCell id="Iv32N8p0v7MfE5rj19wR-21" value="User" style="rounded=1;arcSize=10;whiteSpace=wrap;html=1;align=center;fillColor=#d5e8d4;fillStyle=solid;strokeColor=#82b366;" parent="1" vertex="1">
                    <mxGeometry x="-1406" y="148" width="115" height="40" as="geometry"/>
                </mxCell>
                <mxCell id="Iv32N8p0v7MfE5rj19wR-26" style="edgeStyle=orthogonalEdgeStyle;rounded=0;orthogonalLoop=1;jettySize=auto;html=1;exitX=1;exitY=0.5;exitDx=0;exitDy=0;entryX=0;entryY=0.5;entryDx=0;entryDy=0;" parent="1" source="Iv32N8p0v7MfE5rj19wR-21" target="Iv32N8p0v7MfE5rj19wR-25" edge="1">
                    <mxGeometry relative="1" as="geometry"/>
                </mxCell>
                <mxCell id="Iv32N8p0v7MfE5rj19wR-25" value="Balance" style="whiteSpace=wrap;html=1;align=center;fillColor=#f5f5f5;fillStyle=solid;fontColor=#333333;strokeColor=#666666;" parent="1" vertex="1">
                    <mxGeometry x="-1222" y="148" width="115" height="40" as="geometry"/>
                </mxCell>
                <mxCell id="Iv32N8p0v7MfE5rj19wR-30" style="edgeStyle=orthogonalEdgeStyle;rounded=0;orthogonalLoop=1;jettySize=auto;html=1;dashed=1;dashPattern=1 1;strokeWidth=2;" parent="1" source="Iv32N8p0v7MfE5rj19wR-29" target="Iv32N8p0v7MfE5rj19wR-12" edge="1">
                    <mxGeometry relative="1" as="geometry"/>
                </mxCell>
                <mxCell id="Iv32N8p0v7MfE5rj19wR-35" style="edgeStyle=orthogonalEdgeStyle;rounded=0;orthogonalLoop=1;jettySize=auto;html=1;exitX=1;exitY=0.25;exitDx=0;exitDy=0;" parent="1" source="Iv32N8p0v7MfE5rj19wR-29" target="Iv32N8p0v7MfE5rj19wR-33" edge="1">
                    <mxGeometry relative="1" as="geometry"/>
                </mxCell>
                <mxCell id="Iv32N8p0v7MfE5rj19wR-36" style="edgeStyle=orthogonalEdgeStyle;rounded=0;orthogonalLoop=1;jettySize=auto;html=1;entryX=0;entryY=0.5;entryDx=0;entryDy=0;exitX=1;exitY=0.75;exitDx=0;exitDy=0;" parent="1" source="Iv32N8p0v7MfE5rj19wR-29" target="Iv32N8p0v7MfE5rj19wR-34" edge="1">
                    <mxGeometry relative="1" as="geometry"/>
                </mxCell>
                <mxCell id="Iv32N8p0v7MfE5rj19wR-29" value="Task" style="rounded=1;arcSize=10;whiteSpace=wrap;html=1;align=center;fillStyle=solid;fillColor=#d5e8d4;strokeColor=#82b366;" parent="1" vertex="1">
                    <mxGeometry x="-1406" y="640" width="115" height="40" as="geometry"/>
                </mxCell>
                <mxCell id="Iv32N8p0v7MfE5rj19wR-33" value="Assignment Price" style="whiteSpace=wrap;html=1;align=center;fillColor=#f5f5f5;fontColor=#333333;strokeColor=#666666;" parent="1" vertex="1">
                    <mxGeometry x="-1219" y="600" width="115" height="40" as="geometry"/>
                </mxCell>
                <mxCell id="Iv32N8p0v7MfE5rj19wR-34" value="Complete Price" style="whiteSpace=wrap;html=1;align=center;fillColor=#f5f5f5;fontColor=#333333;strokeColor=#666666;" parent="1" vertex="1">
                    <mxGeometry x="-1219" y="693" width="115" height="40" as="geometry"/>
                </mxCell>
                <mxCell id="Iv32N8p0v7MfE5rj19wR-37" value="ANALYSIS" style="rounded=0;whiteSpace=wrap;html=1;horizontal=1;verticalAlign=top;fontStyle=1;fillColor=none;dashed=1;dashPattern=8 8;strokeColor=#000000;fontColor=#000000;align=left;" parent="1" vertex="1">
                    <mxGeometry x="-976" y="89" width="457" height="691" as="geometry"/>
                </mxCell>
                <mxCell id="Iv32N8p0v7MfE5rj19wR-48" style="edgeStyle=orthogonalEdgeStyle;rounded=0;orthogonalLoop=1;jettySize=auto;html=1;entryX=0.5;entryY=1;entryDx=0;entryDy=0;exitX=0.5;exitY=1;exitDx=0;exitDy=0;curved=1;dashed=1;dashPattern=1 1;strokeWidth=2;" parent="1" source="Iv32N8p0v7MfE5rj19wR-38" target="Iv32N8p0v7MfE5rj19wR-12" edge="1">
                    <mxGeometry relative="1" as="geometry">
                        <Array as="points">
                            <mxPoint x="-822" y="843"/>
                            <mxPoint x="-1823" y="843"/>
                        </Array>
                    </mxGeometry>
                </mxCell>
                <mxCell id="Iv32N8p0v7MfE5rj19wR-38" value="Task" style="rounded=1;arcSize=10;whiteSpace=wrap;html=1;align=center;fillStyle=solid;fillColor=#d5e8d4;strokeColor=#82b366;" parent="1" vertex="1">
                    <mxGeometry x="-880" y="640" width="115" height="40" as="geometry"/>
                </mxCell>
                <mxCell id="Iv32N8p0v7MfE5rj19wR-42" style="edgeStyle=orthogonalEdgeStyle;rounded=0;orthogonalLoop=1;jettySize=auto;html=1;dashed=1;dashPattern=1 1;strokeWidth=2;" parent="1" source="Iv32N8p0v7MfE5rj19wR-39" target="Iv32N8p0v7MfE5rj19wR-16" edge="1">
                    <mxGeometry relative="1" as="geometry"/>
                </mxCell>
                <mxCell id="Iv32N8p0v7MfE5rj19wR-39" value="Transaction" style="rounded=0;arcSize=10;whiteSpace=wrap;html=1;align=center;fillColor=#d5e8d4;fillStyle=solid;strokeColor=#82b366;" parent="1" vertex="1">
                    <mxGeometry x="-880" y="389" width="115" height="40" as="geometry"/>
                </mxCell>
                <mxCell id="Iv32N8p0v7MfE5rj19wR-46" style="edgeStyle=orthogonalEdgeStyle;rounded=0;orthogonalLoop=1;jettySize=auto;html=1;" parent="1" source="Iv32N8p0v7MfE5rj19wR-40" target="Iv32N8p0v7MfE5rj19wR-39" edge="1">
                    <mxGeometry relative="1" as="geometry"/>
                </mxCell>
                <mxCell id="Iv32N8p0v7MfE5rj19wR-40" value="User" style="rounded=1;arcSize=10;whiteSpace=wrap;html=1;align=center;fillColor=#d5e8d4;strokeColor=#82b366;fillStyle=solid;" parent="1" vertex="1">
                    <mxGeometry x="-880" y="258" width="115" height="40" as="geometry"/>
                </mxCell>
                <mxCell id="Iv32N8p0v7MfE5rj19wR-49" style="edgeStyle=orthogonalEdgeStyle;rounded=0;orthogonalLoop=1;jettySize=auto;html=1;entryX=0.25;entryY=0;entryDx=0;entryDy=0;dashed=1;dashPattern=1 1;strokeWidth=2;curved=1;exitX=0.5;exitY=0;exitDx=0;exitDy=0;" parent="1" source="Iv32N8p0v7MfE5rj19wR-40" target="Iv32N8p0v7MfE5rj19wR-2" edge="1">
                    <mxGeometry relative="1" as="geometry">
                        <Array as="points">
                            <mxPoint x="-822" y="118"/>
                            <mxPoint x="-1853" y="118"/>
                        </Array>
                    </mxGeometry>
                </mxCell>
                <mxCell id="mHGjMwjQVeR-y7_QzPVI-1" value="Status" style="whiteSpace=wrap;html=1;align=center;fillColor=#f5f5f5;fontColor=#333333;strokeColor=#666666;" parent="1" vertex="1">
                    <mxGeometry x="-2084" y="640" width="115" height="40" as="geometry"/>
                </mxCell>
                <mxCell id="3" style="edgeStyle=none;html=1;strokeWidth=1;entryX=0.75;entryY=1;entryDx=0;entryDy=0;exitX=0;exitY=0.5;exitDx=0;exitDy=0;rounded=0;" parent="1" source="2" target="Iv32N8p0v7MfE5rj19wR-21" edge="1">
                    <mxGeometry relative="1" as="geometry">
                        <Array as="points">
                            <mxPoint x="-1320" y="330"/>
                        </Array>
                    </mxGeometry>
                </mxCell>
                <mxCell id="2" value="Payoff" style="rounded=1;arcSize=10;whiteSpace=wrap;html=1;align=center;fillColor=#fff2cc;strokeColor=#d6b656;" parent="1" vertex="1">
                    <mxGeometry x="-1222" y="310" width="115" height="40" as="geometry"/>
                </mxCell>
                <mxCell id="4" value="Payoff" style="rounded=1;arcSize=10;whiteSpace=wrap;html=1;align=center;fillColor=#fff2cc;strokeColor=#d6b656;" parent="1" vertex="1">
                    <mxGeometry x="-426" y="151" width="115" height="40" as="geometry"/>
                </mxCell>
                <mxCell id="6" value="Account" style="rounded=1;arcSize=10;whiteSpace=wrap;html=1;align=center;fillColor=#d5e8d4;strokeColor=#82b366;fillStyle=solid;" parent="1" vertex="1">
                    <mxGeometry x="-426" y="325" width="115" height="40" as="geometry"/>
                </mxCell>
                <mxCell id="7" value="Assignment Price" style="whiteSpace=wrap;html=1;align=center;fillColor=#f5f5f5;fontColor=#333333;strokeColor=#666666;" parent="1" vertex="1">
                    <mxGeometry x="-426" y="238" width="115" height="40" as="geometry"/>
                </mxCell>
                <mxCell id="9" style="rounded=0;orthogonalLoop=1;jettySize=auto;html=1;dashed=1;dashPattern=1 1;strokeWidth=2;" parent="1" edge="1">
                    <mxGeometry relative="1" as="geometry">
                        <mxPoint x="-313" y="410" as="sourcePoint"/>
                        <mxPoint x="-426" y="410" as="targetPoint"/>
                    </mxGeometry>
                </mxCell>
                <mxCell id="10" style="rounded=0;orthogonalLoop=1;jettySize=auto;html=1;strokeWidth=2;" parent="1" edge="1">
                    <mxGeometry relative="1" as="geometry">
                        <mxPoint x="-313" y="462" as="sourcePoint"/>
                        <mxPoint x="-426" y="462" as="targetPoint"/>
                    </mxGeometry>
                </mxCell>
                <mxCell id="11" value="Зависимость сущностей &lt;br&gt;между доменами" style="text;html=1;align=left;verticalAlign=middle;resizable=0;points=[];autosize=1;strokeColor=none;fillColor=none;" parent="1" vertex="1">
                    <mxGeometry x="-293" y="389" width="154" height="41" as="geometry"/>
                </mxCell>
                <mxCell id="12" value="Признак сущности /&amp;nbsp;&lt;br&gt;Составная часть сущности" style="text;html=1;align=left;verticalAlign=middle;resizable=0;points=[];autosize=1;strokeColor=none;fillColor=none;" parent="1" vertex="1">
                    <mxGeometry x="-293" y="236" width="168" height="41" as="geometry"/>
                </mxCell>
                <mxCell id="13" value="Отражение сущности &lt;br&gt;в другом домене" style="text;html=1;align=left;verticalAlign=middle;resizable=0;points=[];autosize=1;strokeColor=none;fillColor=none;" parent="1" vertex="1">
                    <mxGeometry x="-293" y="325" width="138" height="41" as="geometry"/>
                </mxCell>
                <mxCell id="14" value="Зависимость сущностей &lt;br&gt;внутри домена" style="text;html=1;align=left;verticalAlign=middle;resizable=0;points=[];autosize=1;strokeColor=none;fillColor=none;" parent="1" vertex="1">
                    <mxGeometry x="-292" y="439" width="154" height="41" as="geometry"/>
                </mxCell>
                <mxCell id="15" value="Базовая сущность" style="text;html=1;align=left;verticalAlign=middle;resizable=0;points=[];autosize=1;strokeColor=none;fillColor=none;" parent="1" vertex="1">
                    <mxGeometry x="-289" y="155.5" width="120" height="26" as="geometry"/>
                </mxCell>
            </root>
        </mxGraphModel>
    </diagram>
</mxfile>